HIERARCHY
ROOT joint_Root
{
	OFFSET 0.0 0.0 0.0
	CHANNELS 6 Xposition Yposition Zposition Zrotation Xrotation Yrotation 
	JOINT Hips
	{
		OFFSET -17.1583 93.1646 452.98
		CHANNELS 6 Xposition Yposition Zposition Zrotation Xrotation Yrotation 
		JOINT Spine
		{
			OFFSET 15.7357 0.0 0.0
			CHANNELS 6 Xposition Yposition Zposition Zrotation Xrotation Yrotation 
			JOINT Chest
			{
				OFFSET 8.98455 -0.406207 0.0
				CHANNELS 6 Xposition Yposition Zposition Zrotation Xrotation Yrotation 
				JOINT Neck
				{
					OFFSET 16.3773 0.0 0.0
					CHANNELS 6 Xposition Yposition Zposition Zrotation Xrotation Yrotation 
					JOINT Head
					{
						OFFSET 6.45672 0.0 0.0
						CHANNELS 6 Xposition Yposition Zposition Zrotation Xrotation Yrotation 
						End Site
						{
							OFFSET 0.0 0.0 0.0
						}
					}
				}
				JOINT Shoulder_L
				{
					OFFSET 12.9942 -0.242716 4.98039
					CHANNELS 6 Xposition Yposition Zposition Zrotation Xrotation Yrotation 
					JOINT UpperArm_L
					{
						OFFSET 5.34809 0.0 0.0
						CHANNELS 6 Xposition Yposition Zposition Zrotation Xrotation Yrotation 
						JOINT LowerArm_L
						{
							OFFSET 24.3286 1.87007e-05 0.0
							CHANNELS 6 Xposition Yposition Zposition Zrotation Xrotation Yrotation 
							JOINT Hand_L
							{
								OFFSET 22.2916 0.0 0.0
								CHANNELS 6 Xposition Yposition Zposition Zrotation Xrotation Yrotation 
								End Site
								{
									OFFSET 0.0 0.0 0.0
								}
							}
						}
					}
				}
				JOINT Shoulder_R
				{
					OFFSET 12.9945 -0.242716 -4.98039
					CHANNELS 6 Xposition Yposition Zposition Zrotation Xrotation Yrotation 
					JOINT UpperArm_R
					{
						OFFSET -5.34813 0.0 0.0
						CHANNELS 6 Xposition Yposition Zposition Zrotation Xrotation Yrotation 
						JOINT LowerArm_R
						{
							OFFSET -24.3289 0.000322201 0.0
							CHANNELS 6 Xposition Yposition Zposition Zrotation Xrotation Yrotation 
							JOINT Hand_R
							{
								OFFSET -22.2915 -0.000108084 0.0
								CHANNELS 6 Xposition Yposition Zposition Zrotation Xrotation Yrotation 
								End Site
								{
									OFFSET 0.0 0.0 0.0
								}
							}
						}
					}
				}
			}
		}
		JOINT UpperLeg_L
		{
			OFFSET -2.19248 -6.46944 0.0
			CHANNELS 6 Xposition Yposition Zposition Zrotation Xrotation Yrotation 
			JOINT LowerLeg_L
			{
				OFFSET 39.0811 0.0 -1.23785e-05
				CHANNELS 6 Xposition Yposition Zposition Zrotation Xrotation Yrotation 
				JOINT Foot_L
				{
					OFFSET 40.9854 0.0 -1.26872e-05
					CHANNELS 6 Xposition Yposition Zposition Zrotation Xrotation Yrotation 
					JOINT Toes_L
					{
						OFFSET 11.7543 0.0 0.0
						CHANNELS 6 Xposition Yposition Zposition Zrotation Xrotation Yrotation 
						End Site
						{
							OFFSET 0.0 0.0 0.0
						}
					}
				}
			}
		}
		JOINT UpperLeg_R
		{
			OFFSET -2.19251 6.46944 0.0
			CHANNELS 6 Xposition Yposition Zposition Zrotation Xrotation Yrotation 
			JOINT LowerLeg_R
			{
				OFFSET -39.0811 -0.00228153 -0.0401928
				CHANNELS 6 Xposition Yposition Zposition Zrotation Xrotation Yrotation 
				JOINT Foot_R
				{
					OFFSET -40.9854 0.0 0.0
					CHANNELS 6 Xposition Yposition Zposition Zrotation Xrotation Yrotation 
					JOINT Toes_R
					{
						OFFSET -11.7543 0.0 0.0
						CHANNELS 6 Xposition Yposition Zposition Zrotation Xrotation Yrotation 
						End Site
						{
							OFFSET 0.0 0.0 0.0
						}
					}
				}
			}
		}
	}
}
MOTION
Frames:	8
Frame Time:	0.0333333
0.000000 0.000000 0.000000 0.000000 0.000000 -0.000000 -2.152770 93.501000 -4.965180 87.612900 -0.743535 0.245473 15.735700 0.000005 -0.000001 101.547000 86.837500 -100.660000 8.984550 -0.406207 -0.000000 -1.577670 1.193530 1.788910 16.377300 -0.000001 -0.000001 -4.580380 1.529390 -1.604280 6.456720 -0.000001 -0.000000 0.931113 1.089800 0.331393 12.994200 -0.242716 4.980390 -92.426600 8.220120 -73.490400 5.348090 -0.000007 -0.000001 -67.321300 27.698600 -8.976760 24.328600 0.000019 0.000005 8.772250 33.888500 -15.471000 22.291600 -0.000001 0.000005 -22.280800 5.322460 -0.640764 12.994500 -0.242716 -4.980390 89.083400 3.604520 -75.723000 -5.348130 -0.000001 -0.000004 -66.361200 40.547900 -11.467900 -24.328900 0.000322 -0.000009 2.059490 8.455300 -13.750200 -22.291500 -0.000108 -0.000004 -19.978200 5.138460 4.228780 -2.192480 -6.469440 -0.000000 -172.708000 -7.324860 -4.621250 39.081100 -0.000007 -0.000012 0.000623 -0.002257 15.446300 40.985400 -0.000006 -0.000013 -2.034760 12.464800 -66.738200 11.754300 -0.000000 0.000003 -0.000135 0.169859 -9.687290 -2.192510 6.469440 -0.000001 179.181000 5.460240 176.631000 -39.081100 -0.002282 -0.040193 0.035356 -0.146809 12.304300 -40.985400 0.000008 0.000006 -3.769330 6.015190 -65.560700 -11.754300 -0.000006 -0.000006 -0.008644 0.260877 -5.977270
0.000000 0.000000 0.000000 0.000000 0.000000 -0.000000 -2.104740 93.505000 -4.640310 87.621100 -0.497896 0.174102 15.735700 0.000005 -0.000001 100.892000 87.031500 -100.035000 8.984550 -0.406207 -0.000000 -1.943400 1.048980 1.731160 16.377300 -0.000001 -0.000001 -5.065640 1.325960 -1.412030 6.456720 -0.000001 -0.000000 -0.124303 1.269800 0.072413 12.994200 -0.242716 4.980390 -92.191000 7.552890 -73.771300 5.348090 -0.000007 -0.000001 -62.861000 24.520900 -14.831700 24.328600 0.000019 0.000005 8.011390 38.627400 -12.705900 22.291600 -0.000001 0.000005 -30.119800 5.412350 -3.348230 12.994500 -0.242716 -4.980390 89.375400 2.374170 -75.255900 -5.348130 -0.000001 -0.000004 -61.148600 39.083500 -18.059500 -24.328900 0.000322 -0.000009 2.433960 10.395100 -13.261400 -22.291500 -0.000108 -0.000004 -28.952500 5.090370 5.344250 -2.192480 -6.469440 -0.000000 -172.730000 -7.328420 -4.429220 39.081100 -0.000007 -0.000012 -0.002986 0.010941 15.263100 40.985400 -0.000006 -0.000013 -1.977070 12.620200 -66.801700 11.754300 -0.000000 0.000003 -0.000321 0.172870 -9.565000 -2.192510 6.469440 -0.000001 179.089000 6.040510 176.972000 -39.081100 -0.002282 -0.040193 0.031688 -0.133596 11.981700 -40.985400 0.000008 0.000006 -3.822730 6.354270 -65.550000 -11.754300 -0.000006 -0.000006 -0.008743 0.261659 -5.945320
0.000000 0.000000 0.000000 0.000000 0.000000 -0.000000 -2.049110 93.484300 -4.140150 87.649800 -0.538602 0.406110 15.735700 0.000005 -0.000001 100.972000 87.298100 -100.145000 8.984550 -0.406207 -0.000000 -2.467440 0.954347 1.674710 16.377300 -0.000001 -0.000001 -5.135530 1.172630 -1.341580 6.456720 -0.000001 -0.000000 -0.948024 1.393510 -0.281170 12.994200 -0.242716 4.980390 -91.901300 6.458840 -73.558500 5.348090 -0.000007 -0.000001 -57.846000 18.607300 -20.884300 24.328600 0.000019 0.000005 7.342250 40.288200 -11.269500 22.291600 -0.000001 0.000005 -31.712500 5.364840 -1.832640 12.994500 -0.242716 -4.980390 89.737000 0.944303 -74.432700 -5.348130 -0.000001 -0.000004 -55.414200 34.168700 -25.222400 -24.328900 0.000322 -0.000009 2.018500 8.877080 -12.871500 -22.291500 -0.000108 -0.000004 -31.127500 5.013320 7.032530 -2.192480 -6.469440 -0.000000 -172.708000 -7.582490 -3.777110 39.081100 -0.000007 -0.000012 -0.007748 0.028724 15.094600 40.985400 -0.000006 -0.000013 -1.890780 12.806600 -66.777500 11.754300 -0.000000 0.000003 -0.000903 0.181646 -9.208430 -2.192510 6.469440 -0.000001 178.959000 5.893740 177.614000 -39.081100 -0.002282 -0.040193 0.029402 -0.124104 11.861700 -40.985400 0.000008 0.000006 -3.891340 6.235320 -65.733700 -11.754300 -0.000006 -0.000006 -0.008702 0.261336 -5.958550
0.000000 0.000000 0.000000 0.000000 0.000000 -0.000000 -1.953410 93.413200 -3.460730 87.743900 -0.694974 0.953494 15.735700 0.000005 -0.000001 101.167000 87.610800 -100.406000 8.984550 -0.406207 -0.000000 -3.083420 0.853040 1.544890 16.377300 -0.000001 -0.000001 -4.833910 1.111910 -1.367670 6.456720 -0.000001 -0.000000 -1.592970 1.399740 -0.517541 12.994200 -0.242716 4.980390 -91.654500 5.406140 -72.955300 5.348090 -0.000007 -0.000001 -51.848200 11.376300 -27.256400 24.328600 0.000019 0.000005 6.795290 39.380200 -10.636900 22.291600 -0.000001 0.000005 -26.308700 5.333900 -0.908258 12.994500 -0.242716 -4.980390 90.021700 -0.073703 -73.598700 -5.348130 -0.000001 -0.000004 -49.240100 27.054800 -32.197100 -24.328900 0.000322 -0.000009 1.477840 6.531450 -12.787600 -22.291500 -0.000108 -0.000004 -25.640000 5.075030 5.707250 -2.192480 -6.469440 -0.000000 -172.730000 -7.905150 -2.824390 39.081100 -0.000007 -0.000012 -0.010777 0.039614 15.217800 40.985400 -0.000006 -0.000013 -1.722490 12.943500 -66.857500 11.754300 -0.000000 0.000003 -0.001453 0.189274 -8.898420 -2.192510 6.469440 -0.000001 178.720000 5.680780 178.457000 -39.081100 -0.002282 -0.040193 0.032134 -0.132917 12.225200 -40.985400 0.000008 0.000006 -3.719760 6.211110 -66.307500 -11.754300 -0.000006 -0.000006 -0.008811 0.262192 -5.923560
0.000000 0.000000 0.000000 0.000000 0.000000 -0.000000 -1.863800 93.325300 -2.596970 87.876100 -0.970875 1.651380 15.735700 0.000005 -0.000001 103.159000 87.968900 -102.488000 8.984550 -0.406207 -0.000000 -3.815420 0.856414 1.370960 16.377300 -0.000001 -0.000001 -4.603760 1.076780 -1.371640 6.456720 -0.000001 -0.000000 -1.734590 1.375190 -0.784080 12.994200 -0.242716 4.980390 -91.277000 4.038340 -72.435400 5.348090 -0.000007 -0.000001 -45.982600 3.301020 -33.385100 24.328600 0.000019 0.000005 6.334470 36.120300 -10.665200 22.291600 -0.000001 0.000005 -17.672100 5.310170 -0.231150 12.994500 -0.242716 -4.980390 90.351500 -1.148920 -72.990900 -5.348130 -0.000001 -0.000004 -43.475100 18.641200 -38.594300 -24.328900 0.000322 -0.000009 0.910150 4.051670 -12.685200 -22.291500 -0.000108 -0.000004 -16.331400 5.210590 2.497780 -2.192480 -6.469440 -0.000000 -172.743000 -8.133650 -1.505290 39.081100 -0.000007 -0.000012 -0.011658 0.042799 15.236100 40.985400 -0.000006 -0.000013 -1.580540 12.931700 -67.051800 11.754300 -0.000000 0.000003 -0.001612 0.191376 -8.812950 -2.192510 6.469440 -0.000001 178.362000 5.672810 179.519000 -39.081100 -0.002282 -0.040193 0.033970 -0.136296 12.668100 -40.985400 0.000008 0.000006 -3.734550 6.533850 -66.926300 -11.754300 -0.000006 -0.000006 -0.008975 0.263482 -5.870850
0.000000 0.000000 0.000000 0.000000 0.000000 -0.000000 -1.755860 93.213000 -1.554830 87.972100 -1.175580 2.232550 15.735700 0.000005 -0.000001 107.197000 88.401200 -106.567000 8.984550 -0.406207 -0.000000 -4.716260 0.875967 1.295680 16.377300 -0.000001 -0.000001 -4.679420 1.091900 -1.457000 6.456720 -0.000001 -0.000000 -1.706570 1.402720 -1.194370 12.994200 -0.242716 4.980390 -90.847200 2.587400 -71.862000 5.348090 -0.000007 -0.000001 -39.743900 -4.215140 -39.184100 24.328600 0.000019 0.000005 6.037280 32.134300 -11.246200 22.291600 -0.000001 0.000005 -9.001450 5.254070 1.299370 12.994500 -0.242716 -4.980390 90.735500 -2.298460 -72.250300 -5.348130 -0.000001 -0.000004 -38.656200 8.882790 -44.563800 -24.328900 0.000322 -0.000009 0.578508 2.605750 -12.543200 -22.291500 -0.000108 -0.000004 -7.550850 5.271260 0.868040 -2.192480 -6.469440 -0.000000 -172.748000 -8.189990 -0.200443 39.081100 -0.000007 -0.000012 -0.007460 0.027204 15.334500 40.985400 -0.000006 -0.000013 -1.416620 12.828300 -67.560300 11.754300 -0.000000 0.000003 -0.001651 0.191889 -8.792080 -2.192510 6.469440 -0.000001 177.991000 5.797970 -179.368000 -39.081100 -0.002282 -0.040193 0.034229 -0.133295 13.049500 -40.985400 0.000008 0.000006 -3.864350 6.936930 -67.624800 -11.754300 -0.000006 -0.000006 -0.009712 0.269143 -5.639420
0.000000 0.000000 0.000000 0.000000 0.000000 -0.000000 -1.635830 93.083500 -0.370458 88.048000 -1.176260 2.719110 15.735700 0.000005 -0.000001 114.372000 88.876500 -113.775000 8.984550 -0.406207 -0.000000 -5.723850 0.855691 1.239200 16.377300 -0.000001 -0.000001 -5.084580 1.129190 -1.572980 6.456720 -0.000001 -0.000000 -1.683710 1.442320 -1.606090 12.994200 -0.242716 4.980390 -90.413000 1.213910 -71.204700 5.348090 -0.000007 -0.000001 -34.366800 -12.374700 -44.830900 24.328600 0.000019 0.000005 5.440840 28.920400 -11.142000 22.291600 -0.000001 0.000005 -2.161840 5.169510 3.452610 12.994500 -0.242716 -4.980390 91.119400 -3.373360 -71.631200 -5.348130 -0.000001 -0.000004 -34.934200 -1.805960 -49.933800 -24.328900 0.000322 -0.000009 0.308076 1.470420 -11.866500 -22.291500 -0.000108 -0.000004 -2.375340 5.246530 1.518020 -2.192480 -6.469440 -0.000000 -172.761000 -7.916430 1.119750 39.081100 -0.000007 -0.000012 0.000116 -0.000423 15.363800 40.985400 -0.000006 -0.000013 -1.270730 12.639300 -68.220200 11.754300 -0.000000 0.000003 -0.001880 0.194837 -8.672210 -2.192510 6.469440 -0.000001 177.630000 5.684980 -178.174000 -39.081100 -0.002282 -0.040193 0.030418 -0.114604 13.296800 -40.985400 0.000008 0.000006 -4.372530 7.024270 -68.257600 -11.754300 -0.000006 -0.000006 -0.009865 0.270291 -5.592480
0.000000 0.000000 0.000000 0.000000 0.000000 -0.000000 -1.506120 92.910900 0.944580 88.079500 -1.021100 3.184490 15.735700 0.000005 -0.000001 130.381000 89.313000 -129.808000 8.984550 -0.406207 -0.000000 -6.723700 0.815998 1.196350 16.377300 -0.000001 -0.000001 -5.623290 1.170890 -1.836590 6.456720 -0.000001 -0.000000 -1.837270 1.376770 -1.800210 12.994200 -0.242716 4.980390 -90.036900 0.104535 -70.524600 5.348090 -0.000007 -0.000001 -30.986100 -21.275200 -50.646300 24.328600 0.000019 0.000005 4.391530 25.108300 -10.258000 22.291600 -0.000001 0.000005 3.623090 5.066580 5.846430 12.994500 -0.242716 -4.980390 91.466800 -4.346020 -71.330400 -5.348130 -0.000001 -0.000004 -32.322500 -12.719500 -54.748500 -24.328900 0.000322 -0.000009 -0.159542 -0.878406 -10.240400 -22.291500 -0.000108 -0.000004 0.113107 5.226230 2.052460 -2.192480 -6.469440 -0.000000 -172.732000 -7.717570 2.366090 39.081100 -0.000007 -0.000012 0.007362 -0.026351 15.610900 40.985400 -0.000006 -0.000013 -1.048800 12.632800 -69.047100 11.754300 -0.000000 0.000003 -0.002290 0.199920 -8.465500 -2.192510 6.469440 -0.000001 177.344000 5.467400 -176.908000 -39.081100 -0.002282 -0.040193 0.026001 -0.093967 13.562500 -40.985400 0.000008 0.000006 -4.910720 6.861470 -68.967300 -11.754300 -0.000006 -0.000006 -0.010583 0.275615 -5.374680
